<svg id="fi_9958182" height="512" viewBox="0 0 266.5434 210.3917" width="512"
  xmlns="http://www.w3.org/2000/svg" fill="#38b2ac">
  <g>
    <path
      d="m12.5108 207.3076c2.5566-.0005 5.1357-.7817 7.3584-2.4038l48.8809-35.6699c4.3838-3.1987 6.2031-8.8604 4.502-14.0137l-3.5261-10.6873-29.842-13.2837c-.3308-.1337-.6664-.2741-1.0037-.4181l7.7781 23.5756-41.5255 30.3027c-5.5771 4.0693-6.7988 11.8887-2.7295 17.4653 2.4483 3.354 6.251 5.1329 10.1074 5.1329z"></path>
    <path
      d="m106.5069 210.3917c.8389 0 1.6904-.085 2.5439-.2617 6.7607-1.3984 11.1074-8.0117 9.71-14.7725l-12.1104-58.5684c-.8154-3.9424-3.4795-7.251-7.1572-8.8887l-3.9004-1.7363v77.7789c2.18 3.9358 6.3573 6.4487 10.9141 6.4487z"></path>
    <path
      d="m130.3834 48.1342c-2.2003-.2051-4.4744.4885-6.2144 2.1182-1.9801 1.8553-2.8013 4.4807-2.4443 6.9777l7.6641-8.1811c.3098-.3309.6466-.6304.9946-.9148z"></path>
    <path
      d="m134.8475 73.3532 9.3569 9.9885c1.4476-.7772 3.1001-1.2205 4.8552-1.2205h30.7812l7.6104-20.8154c1.4785-4.0459 5.3672-6.7646 9.6758-6.7646 1.2051 0 2.3945.2109 3.5342.6279 5.334 1.9502 8.0869 7.877 6.1377 13.2109l-9.6984 26.5259c.0093.0161.0183.0325.0276.0486 3.1044 5.405 5.8171 11.3509 7.6642 18.4567.3887 1.1396.8018 2.2051 1.2266 3.2354l-12.7275 38.5732c-1.7012 5.1533.1182 10.8154 4.502 14.0146l48.8809 35.6699c2.2227 1.6221 4.8018 2.4033 7.3584 2.4033 3.8555 0 7.6601-1.7793 10.1074-5.1328 4.0693-5.5762 2.8477-13.3965-2.7295-17.4658l-41.5254-30.3027 8.7578-26.543c7.5342-3.6299 14.4668-9.8652 11.6621-24.0146-2.7644-9.9235-5.5975-17.7679-9.1852-24.9066-4.3208-8.5975-9.7371-16.1704-17.4613-25.1042-10.3525-11.832-23.7646-11.4404-30.9727-6.165-1.6353 1.1974-2.825 2.7869-3.6432 4.605l-15.2965 28.5208-18.075-19.2954c-.3579.5768-.7747 1.1229-1.2493 1.6296z"></path>
    <path
      d="m202.6156 114.1534-.0488-.1631c-.1494-.5751-.3129-1.1301-.4733-1.6894l-17.5006 7.7905v-15.7061h-3.0325-78.0702c-.8055.2007-1.6344.317-2.4755.317l-.1787-.001c-.7898-.0123-1.5684-.1254-2.3253-.316h-10.8852-3.0326v14.3639 2.5181l-22.2578-9.9088c2.2351-7.6477 5.4756-13.9461 9.0836-19.7281l.1068 1.3998c.0559.7318.2139 1.4319.451 2.093 1.1139 3.1059 4.0769 5.2982 7.5255 5.2982h13.0886l-28.3727-32.2416c-3.752-4.2637-3.335-10.7852.9277-14.5371 1.8809-1.6553 4.2959-2.5674 6.8008-2.5674 2.9609 0 5.7803 1.2734 7.7363 3.4951l8.4814 9.6377c1.5756-6.4695.4126-13.0797-4.3057-16.5352-7.209-5.2754-20.6211-5.667-30.9736 6.165-14.1377 16.3516-20.5527 28.1357-26.6465 50.0107-3.165 15.9717 6.0742 21.8604 14.5811 25.2988l42.6475 18.9844 1.126 5.4462v11.359 42.1147h3.0326 4.9674v-94.6665h84v94.6665h4.9675 3.0325v-59.5952l10.3601-4.6118 8.6167-26.1171c-.3604-.9042-.669-1.7382-.9541-2.5742z"></path>
    <path
      d="m167.0499 127.9008c-3.6777 1.6372-6.3418 4.9458-7.1572 8.8887l-12.1094 58.5688c-1.3975 6.7603 2.9502 13.374 9.71 14.772.8545.1763 1.7051.2612 2.5439.2612 5.8037 0 11.0068-4.0649 12.2285-9.9717l1.3271-6.4194v-69.0123z"></path>
    <circle cx="170.375" cy="22.5" r="22.5"></circle>
    <circle cx="96.168" cy="22.5" r="22.5"></circle>
    <path
      d="m125.4835 92.4213c0-2.4341-1.0908-4.6102-2.8059-6.0774l-13.1877 14.0774h7.9937c4.4179 0 7.9999-3.5815 7.9999-8z"></path>
    <path
      d="m77.9562 56.09c-2.9199-3.3164-7.9756-3.6387-11.291-.7207-3.3164 2.9189-3.6396 7.9736-.7207 11.291l29.0645 33.0273c1.4902 1.6934 3.626 2.6787 5.8818 2.7139.041.001.083.001.124.001 2.21 0 4.3252-.915 5.8379-2.5303l35.8906-38.3115c3.0215-3.2246 2.8555-8.2871-.3682-11.3076-3.2266-3.0225-8.2891-2.8545-11.3076.3682l-29.8672 31.8818z"></path>
    <path
      d="m187.0421 100.421c3.3594 0 6.3604-2.0986 7.5137-5.2529l10.083-27.5781c1.5166-4.1494-.6172-8.7432-4.7666-10.2607-4.1484-1.5156-8.7441.6172-10.2607 4.7666l-8.1621 22.3252h-32.3896c-4.418 0-8 3.582-8 8s3.582 8 8 8h37.9823z"></path>
  </g>
</svg>