<svg height="511pt" viewBox="0 -41 511.99942 511" width="511pt" xmlns="http://www.w3.org/2000/svg"
  id="fi_1653900" fill="#b794f4">
  <path
    d="m168.472656 81.425781c3.742188 1.164063 7.523438 1.753907 11.253906 1.851563 7.125-11.636719 20.402344-17.359375 33.21875-15.355469 3.203126-3.957031 5.734376-8.570313 7.339844-13.730469 6.785156-21.828125-5.40625-45.027344-27.234375-51.8125-21.828125-6.789062-45.023437 5.402344-51.8125 27.230469-6.789062 21.828125 5.40625 45.027344 27.234375 51.816406zm0 0"></path>
  <path
    d="m370.757812 29.621094c-6.785156-21.828125-29.984374-34.019532-51.8125-27.234375-21.828124 6.785156-34.019531 29.984375-27.234374 51.8125 6.789062 21.828125 29.984374 34.019531 51.8125 27.234375 21.828124-6.789063 34.023437-29.984375 27.234374-51.8125zm0 0"></path>
  <path
    d="m509.84375 396.457031-35.484375-77.800781v-73.933594l-37.433594-119.453125c-10.957031-32.910156-47.675781-49.542969-79.65625-36.027343l-15.890625 6.714843c-7.875 3.273438-11.570312 8.792969-11.570312 8.792969l-49.628906 15.292969-63.078126-35.839844c-9.007812-5.113281-20.453124-1.960937-25.570312 7.042969s-1.964844 20.449218 7.042969 25.566406l51.25 29.121094.125-.011719c11.78125-1.003906 22.636719 4.316406 29.230469 13.132813 3.957031-.257813.570312.175781 63.375-18.988282l-11.542969 6.707032-3.105469 1.800781-22.210938 31.691406-20.050781-3.789063c1.09375 15.53125-8.773437 29.367188-23.109375 33.804688l48.089844 9.085938c7.171875 1.355468 14.570312-1.578126 18.835938-7.664063l18.085937-25.804687 21.953125 51.9375-53.078125 64.632812c-2.484375 3.019531-4.183594 6.605469-4.949219 10.441406l-17.773437 88.753906c-2.585938 12.898438 5.777343 25.453126 18.675781 28.035157 12.839844 2.574219 25.441406-5.726563 28.035156-18.679688l16.605469-82.917969 47.210937-57.488281 22.492188-2.730469v55.949219c0 3.410157.734375 6.78125 2.148438 9.882813l37.632812 82.511718c5.453125 11.949219 19.570312 17.253907 31.554688 11.785157 11.972656-5.457031 17.25-19.585938 11.789062-31.554688zm0 0"></path>
  <path
    d="m166.988281 204.921875 87.359375-7.453125c10.320313-.882812 17.972656-9.960938 17.089844-20.28125-.878906-10.316406-9.964844-17.96875-20.277344-17.089844l-74.863281 6.390625-21.867187-42.316406 23.863281 27.863281.488281-.039062 7.4375-17.601563c1.019531-2.410156 1.683594-4.882812 2.035156-7.355469-9.253906-6.816406-14.082031-17.808593-13.324218-28.820312-3.53125-2.238281-5.183594-2.507812-20.199219-8.980469-31.949219-13.503906-68.691407 3.089844-79.660157 36.027344-21.796874 67.335937-37.433593 119.457031-37.433593 119.457031v73.933594l-35.484375 77.800781c-5.457032 11.96875-.179688 26.097657 11.789062 31.554688 11.992188 5.472656 26.109375.160156 31.554688-11.785157l37.632812-82.511718c1.414063-3.101563 2.148438-6.472656 2.148438-9.882813v-55.949219l22.492187 2.730469 47.210938 57.488281 16.609375 82.917969c2.585937 12.917969 15.148437 21.257813 28.03125 18.679688 12.898437-2.585938 21.261718-15.136719 18.679687-28.035157l-17.777343-88.753906c-.765626-3.835937-2.464844-7.417968-4.945313-10.441406l-53.082031-64.632812 8.316406-19.671876c-7.308594-2.8125-12.988281-9.105468-14.835938-17.007812l-13.300781-56.734375 26.058594 50.429687c3.484375 6.738282 10.691406 10.71875 18.253906 10.070313zm0 0"></path>
</svg>