<svg id="fi_9998394" enable-background="new 0 0 304.349 228.163" height="512"
  viewBox="0 0 304.349 228.163" width="512" xmlns="http://www.w3.org/2000/svg" fill="#ed64a6">
  <g>
    <g>
      <path
        d="m102.802 162.633.451.487 10.035 53.998c1.118 6.016 6.37 10.218 12.275 10.218.758 0 1.527-.069 2.299-.213 6.787-1.262 11.267-7.786 10.005-14.574l-10.696-57.551c-.379-2.042-1.262-3.953-2.56-5.563-.089.068-.171.142-.269.202z"></path>
      <path
        d="m7.606 226.168c1.598.681 3.258 1.003 4.892 1.003 4.86 0 9.482-2.853 11.506-7.606l20.478-48.089c-.217-.035-.433-.089-.645-.175l-22-8.917c-.191-.077-.37-.173-.535-.282l-20.299 47.668c-2.705 6.352.251 13.694 6.603 16.398z"></path>
      <path
        d="m99.404 27.865c3.431 0 6.624 1.696 8.543 4.536 1.064 1.575 1.648 3.373 1.743 5.224 3.511-3.862 5.707-8.952 5.844-14.58.301-12.423-9.524-22.737-21.948-23.039-12.423-.3-22.739 9.526-23.04 21.949-.173 7.137 3.001 13.573 8.085 17.82l15.016-10.143c1.709-1.156 3.7-1.767 5.757-1.767z"></path>
      <path
        d="m49.084 80.168c1.541 0 3.099-.444 4.471-1.372l41.277-27.882-9.157-12.533c-.099-.136-.173-.282-.233-.432l-29.043 19.619 1.38-3.708 16.341-11.039-11.231-1.933c-.464-.08-.924-.109-1.379-.106-2.744-.144-5.479.62-7.87 2.257-8.227 5.634-11.46 21.391-12.469 27.903-.011.068-.012.136-.021.204-.019.149-.036.298-.047.449-.009.119-.014.238-.017.357-.004.141-.004.281-.001.422.003.125.009.249.018.373.01.134.023.268.039.402.016.126.033.251.055.375.023.133.049.264.079.396.027.122.057.242.09.362.036.131.076.262.119.392.039.117.08.234.124.349.049.127.101.253.156.378.052.117.106.231.164.345.06.119.121.236.188.353.066.116.135.229.206.341.043.068.079.138.124.205.025.037.055.068.081.105.135.193.279.378.43.558.048.057.091.119.141.174.187.211.388.409.597.6.095.086.194.165.292.246.13.107.262.212.399.311.11.079.22.156.333.229.139.091.283.175.428.257.112.063.222.129.336.186.174.088.356.164.538.239.159.065.318.126.48.181.192.065.385.129.584.18.148.038.299.064.449.093.104.02.205.048.311.065.027.004.052.002.079.006.03.004.06.012.09.016.355.047.711.077 1.069.077z"></path>
      <path
        d="m23.617 158.791 22 8.917c.369.15.75.221 1.126.221.379 0 .749-.08 1.096-.216.738-.291 1.364-.864 1.685-1.658.554-1.366.025-2.896-1.177-3.656l6.67-15.663 29.795-3.538 11.113 12.007c-.454.893-.459 1.989.097 2.909.408.676 1.042 1.125 1.745 1.326.269.077.545.125.826.125.527 0 1.063-.139 1.547-.432l22.224-13.409c.606-.365 1.023-.915 1.251-1.531.305-.826.258-1.775-.232-2.588-.855-1.419-2.701-1.876-4.118-1.019l-1.8 1.086-20.974-22.662.868-5.047c-4.31.719-8.932 1.035-13.617 1.035-19.309 0-39.405-4.936-40.473-5.201-.026-.007-.049-.02-.075-.027l-.266 1.544-17.772 41.735c-1.329-.186-2.665.534-3.193 1.836-.26.641-.271 1.316-.096 1.935.244.86.856 1.608 1.75 1.971z"></path>
      <path
        d="m43.269 105.88c1.068.266 21.164 5.201 40.473 5.201 5.259 0 10.461-.367 15.202-1.293.684-.134 1.258-.498 1.681-.987.583-.673.872-1.591.688-2.533-.232-1.183-1.131-2.06-2.229-2.332l6.855-39.833 69.096-14.771c-.022-.056-.06-.101-.077-.16l-4.471-15.23-67.111 14.347c-.102-.056-.203-.112-.308-.164l-4.746 3.206c-.115.151-.245.294-.406.412-.202.148-.424.241-.652.303l-42.422 28.656c-1.709 1.155-3.7 1.766-5.758 1.766-.397 0-.79-.031-1.179-.075l-3.046 17.7c-.079-.019-.13-.031-.14-.034-1.606-.401-3.235.579-3.636 2.187-.245.986.032 1.976.65 2.689.39.449.914.79 1.536.945z"></path>
      <path
        d="m96.77 49.938c.392.536 1 .82 1.617.82.409 0 .822-.125 1.178-.385.892-.651 1.087-1.903.436-2.794l-.076-.105 3.965-2.678c3.662-2.473 4.625-7.446 2.151-11.107-2.474-3.662-7.447-4.625-11.106-2.151l-4.465 3.016c-.669-.802-1.852-.964-2.708-.338-.892.651-1.087 1.903-.436 2.794z"></path>
      <path
        d="m172.465 33.08 4.51 15.362c.213.725.805 1.216 1.494 1.368.14.031.278.069.424.069.187 0 .376-.026.564-.082.802-.236 1.344-.93 1.425-1.714l7.155-1.529c4.32-.924 7.074-5.175 6.15-9.496-.923-4.321-5.176-7.078-9.496-6.151l-8.181 1.749-.207-.704c-.312-1.06-1.422-1.667-2.482-1.355-.424.124-.77.38-1.02.706-.374.489-.523 1.141-.336 1.777z"></path>
    </g>
    <g>
      <path
        d="m250.606 163.344c-.021 0-.042 0-.063 0-.073 0-.142-.016-.214-.021l-.568 12.783c-.13 2.919.767 5.791 2.534 8.117l29.6 38.959c2.459 3.237 6.188 4.938 9.963 4.938 2.635 0 5.292-.83 7.552-2.547 5.497-4.176 6.568-12.018 2.392-17.515l-26.864-35.358.447-10.063c-.325.13-.675.213-1.046.221z"></path>
      <path
        d="m251.382 159.328 23.176-.476c.8-.016 1.516-.35 2.043-.871.564-.558.912-1.333.894-2.19-.023-1.169-.703-2.146-1.69-2.622l.818-18.418z"></path>
      <path
        d="m214.356 160.988-7.162 53c-.924 6.841 3.872 13.137 10.714 14.061.568.077 1.132.114 1.689.114 6.159 0 11.524-4.554 12.372-10.828l6.394-47.322c-.248-.104-.489-.234-.71-.41l-18.566-14.792c-.428-.341-.725-.779-.911-1.254l-.153.149c-2.002 1.949-3.293 4.513-3.667 7.282z"></path>
      <path
        d="m201.212 72.852c1.478 1.299 3.36 1.992 5.282 1.992.664 0 1.333-.083 1.991-.252l7.426-1.909-10.775-26.168c-1.048-2.543-1.042-5.343.017-7.883 1.058-2.54 3.042-4.516 5.586-5.563 1.253-.516 2.571-.777 3.918-.777.502 0 .998.038 1.484.108-.069-.753-.109-1.513-.109-2.284 0-2.469.367-4.852 1.042-7.104l-12.58-2.166c-.123-.021-.24-.056-.354-.098l-5.585 45.113c-.325 2.626.67 5.244 2.657 6.991z"></path>
      <path
        d="m244.707 162.618 32.179-31.333c.639-.622 1.194-1.298 1.671-2.011 2.085-2.569 3.73-6.082 4.665-10.893 2.586-22.215 1.124-35.348-5.682-55.521-3.173-9.227-9.261-14.477-15.466-16.568-.607-.299-1.255-.511-1.924-.649-4.549 5.649-11.517 9.273-19.318 9.273-3.818 0-7.436-.869-10.669-2.416l-.256.066 5.518 13.401 17.01-12.911c1.808-1.372 3.959-2.096 6.223-2.096 3.253 0 6.245 1.484 8.209 4.073 1.664 2.191 2.374 4.899 2.001 7.625s-1.786 5.143-3.978 6.806l-19.783 15.016c2.159 11.597 3.939 24.716 2.361 36.485-.091 1.542-.119 2.916-.09 4.157l-22.322 21.736c-1.245-.643-2.811-.341-3.719.798-1.032 1.296-.818 3.183.478 4.215l18.566 14.792c.552.44 1.212.654 1.867.654.409 0 .813-.092 1.192-.255.438-.189.839-.477 1.157-.875.152-.191.269-.397.367-.608.449-.967.344-2.092-.257-2.961z"></path>
      <path
        d="m204.725 18.714 13.065 2.25c.805-2.019 1.863-3.911 3.143-5.63l.001-.006c.543-4.385-2.571-8.379-6.956-8.922-4.403-.54-8.379 2.572-8.923 6.957l-.173 1.397c-.883.08-1.631.733-1.787 1.645-.188 1.086.542 2.121 1.63 2.309z"></path>
      <path
        d="m218.332 30.116c0 .993.071 1.969.196 2.928 2.518 1.016 4.579 3.007 5.657 5.628l2.498 6.067c.142.149.27.315.364.511.13.271.188.557.192.839l1.138 2.765c3.566 2.375 7.848 3.761 12.454 3.761 12.426 0 22.5-10.073 22.5-22.5s-10.074-22.5-22.5-22.5c-12.427.001-22.499 10.074-22.499 22.501z"></path>
      <path
        d="m225.605 48.162-13.927 6.689c-.18.087-.367.134-.555.163l12.473 30.292c.945 2.296 2.902 4.022 5.299 4.674.691.188 1.396.28 2.099.28 1.728 0 3.431-.56 4.837-1.628l27.667-21c3.52-2.671 4.207-7.689 1.535-11.209-2.671-3.52-7.689-4.206-11.209-1.535l-19.39 14.717z"></path>
      <path
        d="m207.963 52.042c.344.717 1.06 1.135 1.804 1.135.291 0 .586-.063.865-.198l14.432-6.932c.995-.478 1.415-1.673.937-2.668-.478-.997-1.674-1.415-2.669-.937l-.067.032-1.205-2.926c-1.681-4.085-6.359-6.033-10.443-4.352-4.086 1.682-6.034 6.358-4.352 10.443l1.557 3.782c-.936.504-1.324 1.654-.859 2.621z"></path>
    </g>
  </g>
</svg>