<svg version="1.1" id="fi_420806" xmlns="http://www.w3.org/2000/svg"
  xmlns:xlink="http://www.w3.org/1999/xlink" x="0px" y="0px" viewBox="0 0 512 512"
  style="enable-background:new 0 0 512 512;" xml:space="preserve"
	fill="#ec4899">
<g>
	<g>
		<path d="M433.779,118.894C386.166,102.642,323.029,93.691,256,93.691c-67.028,0-130.166,8.951-177.778,25.204
			C27.78,136.113,0,160.171,0,186.636v36.138c0,11.871,5.606,23.255,16.323,33.758v74.008c0,12.409,10.096,22.505,22.505,22.505
			c12.409,0,22.505-10.096,22.505-22.505v-46.401c5.312,2.215,10.936,4.345,16.888,6.377c16.799,5.734,35.538,10.555,55.691,14.399
			v90.889c0,12.409,10.096,22.505,22.505,22.505s22.505-10.096,22.505-22.505v-84.2c24.602,2.705,50.531,4.114,77.077,4.114
			c26.548,0,52.48-1.41,77.084-4.115v84.201c0,12.409,10.096,22.505,22.505,22.505c12.409,0,22.505-10.096,22.505-22.505v-90.891
			c20.15-3.844,38.887-8.663,55.683-14.398c17.967-6.133,33.041-13.137,45.027-20.806v60.829c0,3.102-2.524,5.626-5.626,5.626
			c-3.102,0-5.626-2.524-5.626-5.626v-31.305c0-4.661-3.779-8.439-8.439-8.439c-4.661,0-8.439,3.779-8.439,8.439v31.305
			c0,12.409,10.096,22.505,22.505,22.505c12.409,0,22.505-10.096,22.505-22.505v-74.015C506.396,246.023,512,234.642,512,222.774
			v-36.138C512,160.171,484.221,136.113,433.779,118.894z M44.455,330.538c0,3.102-2.524,5.626-5.626,5.626
			c-3.102,0-5.626-2.524-5.626-5.626v-60.825c3.493,2.235,7.238,4.415,11.253,6.531V330.538z M162.044,395.803
			c0,3.102-2.524,5.626-5.626,5.626c-3.102,0-5.626-2.524-5.626-5.626V307.85c3.711,0.586,7.463,1.141,11.253,1.664V395.803z
			 M361.215,395.803c0,3.102-2.524,5.626-5.626,5.626c-3.102,0-5.626-2.524-5.626-5.626v-86.289
			c3.79-0.523,7.542-1.078,11.253-1.664V395.803z M495.123,222.775c-0.002,18.136-24.973,37.488-66.798,51.765
			C382.423,290.21,321.222,298.839,256,298.839s-126.423-8.63-172.326-24.299c-41.825-14.277-66.795-33.63-66.795-51.768v-1.768
			c7.187,6.907,15.712,12.586,23.596,16.991c4.067,2.274,9.21,0.817,11.484-3.251c2.274-4.069,0.818-9.21-3.251-11.484
			c-26.307-14.698-31.829-28.03-31.829-36.625c0-18.138,24.971-37.49,66.795-51.768C129.577,119.199,190.778,110.57,256,110.57
			s126.423,8.63,172.326,24.299c41.825,14.277,66.795,33.63,66.795,51.768s-24.971,37.49-66.795,51.768
			C382.423,254.073,321.222,262.703,256,262.703c-69.493,0-135.748-10.102-181.778-27.714c-4.352-1.664-9.233,0.513-10.898,4.867
			c-1.665,4.354,0.513,9.233,4.867,10.898c47.881,18.321,116.336,28.829,187.81,28.829c67.029,0,130.166-8.951,177.779-25.204
			c27.429-9.363,48.139-20.751,61.344-33.446V222.775z"></path>
	</g>
</g>
<g>
	<g>
		<path d="M404.631,137.749c-4.484-1.283-9.153,1.313-10.435,5.793c-1.282,4.481,1.312,9.153,5.793,10.435
			c24.519,7.013,53.151,19.774,53.151,32.658c0,20.712-74.999,49.602-197.14,49.602c-122.14,0-197.139-28.89-197.139-49.602
			c0-20.711,74.999-49.601,197.139-49.601c41.919,0,82.108,3.568,116.22,10.319c4.573,0.906,9.012-2.068,9.917-6.64
			c0.905-4.572-2.068-9.012-6.64-9.917c-35.174-6.961-76.495-10.639-119.497-10.639c-55.665,0-108.105,6.15-147.659,17.317
			c-43.413,12.257-66.359,29.257-66.359,49.163s22.946,36.906,66.359,49.163c39.554,11.168,91.993,17.319,147.659,17.319
			s108.105-6.15,147.66-17.318c43.413-12.256,66.359-29.257,66.359-49.163C470.019,166.889,447.408,149.984,404.631,137.749z"></path>
	</g>
</g>
<g>
</g>
<g>
</g>
<g>
</g>
<g>
</g>
<g>
</g>
<g>
</g>
<g>
</g>
<g>
</g>
<g>
</g>
<g>
</g>
<g>
</g>
<g>
</g>
<g>
</g>
<g>
</g>
<g>
</g>
</svg>