<svg xmlns="http://www.w3.org/2000/svg" width="146" height="2" viewBox="0 0 146 2" fill="none">
<rect x="0.799805" width="2" height="2" rx="1" fill="white"/>
<rect width="2" height="2" rx="1" transform="matrix(-1 0 0 1 12.3066 0)" fill="white"/>
<rect width="2" height="2" rx="1" transform="matrix(-1 0 0 1 21.813 0)" fill="white"/>
<rect width="2" height="2" rx="1" transform="matrix(-1 0 0 1 31.3198 0)" fill="white"/>
<rect width="2" height="2" rx="1" transform="matrix(-1 0 0 1 40.8267 0)" fill="white"/>
<rect width="2" height="2" rx="1" transform="matrix(-1 0 0 1 50.333 0)" fill="white"/>
<rect width="2" height="2" rx="1" transform="matrix(-1 0 0 1 59.8398 0)" fill="white"/>
<rect width="2" height="2" rx="1" transform="matrix(-1 0 0 1 69.3467 0)" fill="white"/>
<rect width="2" height="2" rx="1" transform="matrix(-1 0 0 1 78.853 0)" fill="white"/>
<rect width="2" height="2" rx="1" transform="matrix(-1 0 0 1 88.3599 0)" fill="white"/>
<rect width="2" height="2" rx="1" transform="matrix(-1 0 0 1 97.8667 0)" fill="white"/>
<rect width="2" height="2" rx="1" transform="matrix(-1 0 0 1 107.373 0)" fill="white"/>
<rect width="2" height="2" rx="1" transform="matrix(-1 0 0 1 116.88 0)" fill="white"/>
<rect width="2" height="2" rx="1" transform="matrix(-1 0 0 1 126.387 0)" fill="white"/>
<rect width="2" height="2" rx="1" transform="matrix(-1 0 0 1 135.893 0)" fill="white"/>
<rect width="2" height="2" rx="1" transform="matrix(-1 0 0 1 145.4 0)" fill="white"/>
</svg>